# xmcd
#
# Track frame offsets:
#	183
#	12633
#	26458
#	40795
#	52495
#	69295
#	86095
#	108408
#	125770
#	137470
#	148795
#	164383
#	176133
#	187758
#	207483
#	220158
#	239358
#	248270
#	260570
#	271833
#
# Disc length: 3809 seconds
#
# Revision: 0
# Processed by: cddbd v1.5.2PL0 Copyright (c) Steve Scherf et al.
# Submitted via: dBpowerAMP V4.0
#
DISCID=260edf14
DTITLE=Varios - LA RADIO QUE VIVIMOS CD1
DYEAR=1994
DGENRE=Copla
TTITLE0=Antonio Machin - Angelitos Negros
TTITLE1=Lolita Sevilla - Cantame Un Pasodoble Español
TTITLE2=Jorge Sepúlveda - Mirando Al Mar
TTITLE3=Lola Flores - No Me Llames Dolores
TTITLE4=Rafael Farina - Vino Amargo
TTITLE5=Juanito Valderrama - La Hija De Juan Simón
TTITLE6=Adelfa y Pepe Soto - Tientos Del Querer
TTITLE7=Juanita Reina - Francisco Alegre
TTITLE8=Antoñita Moreno - El Cordón De Mi Corpiño
TTITLE9=Emilio El Moro - Billetes Verdes
TTITLE10=Antonio Molina - Soy Minero
TTITLE11=Banda Taurina - El Gato Montés
TTITLE12=Enrique Montoya - Dos Arbolitos
TTITLE13=Carmen Morell y Pepe Blanco - Venimos En Desafio
TTITLE14=Gloria Lasso- Luna De Miel
TTITLE15=Marife De Triana - Encrucijada
TTITLE16=Hermanas Benitez - Te Quiero Dijiste
TTITLE17=Juan Segarra - Perdoname Mi Vida
TTITLE18=Los Maravilla - La Lirio
TTITLE19=Pepe Soto - Ay! Mi Sombreo
EXTD=
EXTT0=
EXTT1=
EXTT2=
EXTT3=
EXTT4=
EXTT5=
EXTT6=
EXTT7=
EXTT8=
EXTT9=
EXTT10=
EXTT11=
EXTT12=
EXTT13=
EXTT14=
EXTT15=
EXTT16=
EXTT17=
EXTT18=
EXTT19=
PLAYORDER=
